<svg xmlns="http://www.w3.org/2000/svg" viewBox="0 0 50 50"><g transform="matrix(.34464 0 -.03343 .34883 -423.185 -243.699)"><rect ry="0" style="stroke-linejoin:round;color:#000;stroke:#000;stroke-linecap:round;stroke-width:1.8204;fill:#000" transform="matrix(1.0389 .33673 .10183 1.0496 -73.866 -.52)" height="21.109" width="19.012" y="282.07" x="1333"/><rect ry="0" style="stroke-linejoin:round;color:#000;stroke:#000;stroke-linecap:round;stroke-width:1.8204;fill:#fbfbfb" transform="matrix(1.0389 .33673 .10183 1.0496 -73.866 -.52)" height="21.109" width="19.012" y="304.91" x="1333.7"/><g style="enable-background:new" transform="matrix(.87724 .33672 .10183 1.0496 141.8 -.52)"><rect style="stroke-linejoin:round;enable-background:accumulate;color:#000;stroke:#000;stroke-linecap:round;stroke-width:1.8204;fill:#fbfbfb" ry="0" height="21.109" width="19.012" y="282.51" x="1313.7"/><rect style="stroke-linejoin:round;enable-background:accumulate;color:#000;stroke:#000;stroke-linecap:round;stroke-width:1.8204;fill:#fbfbfb" ry="0" height="21.109" width="19.012" y="304.52" x="1313.9"/><rect style="stroke-linejoin:round;enable-background:accumulate;color:#000;stroke:#000;stroke-linecap:round;stroke-width:1.8204;fill:#fbfbfb" ry="0" height="21.109" width="19.012" y="327.08" x="1314.4"/></g><rect ry="0" style="stroke-linejoin:round;color:#000;stroke:#000;stroke-linecap:round;stroke-width:1.8117;fill:#000" transform="matrix(1.0396 .33388 .10183 1.0496 -73.866 -.52)" height="20.919" width="19.001" y="331.5" x="1332.1"/><rect ry="0" style="stroke-linejoin:round;color:#000;stroke:#000;stroke-linecap:round;stroke-width:1.8441;fill:#fbfbfb" transform="matrix(-1.003 .26282 .10183 1.0496 -73.866 -.52)" height="21.088" width="19.53" y="1047.2" x="-1343.6"/><rect style="stroke-linejoin:round;color:#000;stroke:#000;stroke-linecap:round;stroke-width:1.664;fill:#fbfbfb" transform="matrix(1.0382 .33933 -1.0056 .25553 -73.866 -.52)" ry="0" width="17.891" y="463.65" x="1830" height="18.742"/><rect style="stroke-linejoin:round;color:#000;stroke:#000;stroke-linecap:round;stroke-width:1.664;fill:#fbfbfb" transform="matrix(1.0382 .33933 -1.0056 .25553 -73.866 -.52)" ry="0" width="17.891" y="444.06" x="1830.4" height="18.742"/><g style="enable-background:new" transform="matrix(1.00766 .29945 -.97266 .24554 -31.869 77.861)"><rect style="stroke-linejoin:round;enable-background:accumulate;color:#000;stroke:#000;stroke-linecap:round;stroke-width:1.664;fill:#fbfbfb" ry="0" height="18.742" width="17.891" y="463.57" x="1810.3"/><rect style="stroke-linejoin:round;enable-background:accumulate;color:#000;stroke:#000;stroke-linecap:round;stroke-width:1.664;fill:#000" ry="0" height="18.742" width="17.891" y="444" x="1809.9"/><rect style="stroke-linejoin:round;enable-background:accumulate;color:#000;stroke:#000;stroke-linecap:round;stroke-width:1.664;fill:#fbfbfb" ry="0" height="18.742" width="17.891" y="423.93" x="1811"/></g><rect style="stroke-linejoin:round;color:#000;stroke:#000;stroke-linecap:round;stroke-width:1.664;fill:#fbfbfb" transform="matrix(1.0382 .33933 -1.0056 .25553 -73.866 -.52)" ry="0" width="17.891" y="425.03" x="1831.4" height="18.742"/><rect ry="0" style="stroke-linejoin:round;color:#000;stroke:#000;stroke-linecap:round;stroke-width:1.8441;fill:#fbfbfb" transform="matrix(-1.003 .26282 .10183 1.0496 -73.866 -.52)" height="21.088" width="19.53" y="1069.8" x="-1344"/><rect ry="0" style="stroke-linejoin:round;color:#000;stroke:#000;stroke-linecap:round;stroke-width:1.8441;fill:#fbfbfb" transform="matrix(-1.003 .26282 .10183 1.0496 -73.866 -.52)" height="21.088" width="19.53" y="1092.4" x="-1343.4"/><rect ry="0" style="stroke-linejoin:round;color:#000;stroke:#000;stroke-linecap:round;stroke-width:1.7073;fill:#fbfbfb" transform="matrix(-.99684 .27962 .10183 1.0496 -73.866 -.52)" height="21.129" width="16.707" y="1071.1" x="-1387.4"/><rect ry="0" style="stroke-linejoin:round;color:#000;stroke:#000;stroke-linecap:round;stroke-width:1.7073;fill:#fbfbfb" transform="matrix(-.99684 .27962 .10183 1.0496 -73.866 -.52)" height="21.129" width="16.707" y="1093.8" x="-1387.8"/><rect ry="0" style="stroke-linejoin:round;color:#000;stroke:#000;stroke-linecap:round;stroke-width:1.7073;fill:#fbfbfb" transform="matrix(-.99684 .27962 .10183 1.0496 -73.866 -.52)" height="21.129" width="16.707" y="1116.4" x="-1387.3"/><rect ry="0" style="stroke-linejoin:round;color:#000;stroke:#000;stroke-linecap:round;stroke-width:1.7632;fill:#fbfbfb" transform="matrix(-1.0034 .26174 .10183 1.0496 -73.866 -.52)" height="21.112" width="17.834" y="1046" x="-1362.3"/><rect ry="0" style="stroke-linejoin:round;color:#000;stroke:#000;stroke-linecap:round;stroke-width:1.7632;fill:#fbfbfb" transform="matrix(-1.0034 .26174 .10183 1.0496 -73.866 -.52)" height="21.112" width="17.834" y="1068.7" x="-1362.8"/><rect ry="0" style="stroke-linejoin:round;color:#000;stroke:#000;stroke-linecap:round;stroke-width:1.7632;fill:#fbfbfb" transform="matrix(-1.0034 .26174 .10183 1.0496 -73.866 -.52)" height="21.112" width="17.834" y="1091.3" x="-1362.2"/><rect ry="0" style="stroke-linejoin:round;color:#000;stroke:#000;stroke-linecap:round;stroke-width:1.8379;fill:#000" transform="matrix(-.63146 .77541 .41897 .908 0 0)" height="21.593" width="18.943" y="1732.8" x="-1054.6"/><g style="enable-background:new" transform="matrix(.97899 0 0 1.0097 29.724 -6.797)"><rect style="stroke-linejoin:round;enable-background:accumulate;color:#000;stroke:#000;stroke-linecap:round;stroke-width:1.8381;fill:#fbfbfb" transform="matrix(-.65927 .7519 .3851 .92288 0 0)" ry="0" height="21.576" width="18.964" y="1719.1" x="-1126.1"/><rect style="stroke-linejoin:round;enable-background:accumulate;color:#000;stroke:#000;stroke-linecap:round;stroke-width:1.785;fill:#fbfbfb" transform="matrix(-.68535 .72821 .36372 .93151 0 0)" ry="0" height="20.786" width="18.563" y="1693.4" x="-1169.2"/></g><g style="enable-background:new" transform="matrix(1.1676 0 .15807 1 -351.47 1.01)"><rect style="stroke-linejoin:round;enable-background:accumulate;color:#000;stroke:#000;stroke-linecap:round;stroke-width:1.6511;fill:#fbfbfb" transform="matrix(.97276 .2318 -.65484 .75577 0 0)" ry="0" height="20.054" width="16.977" y="444.07" x="1725.1"/><rect style="stroke-linejoin:round;enable-background:accumulate;color:#000;stroke:#000;stroke-linecap:round;stroke-width:1.6617;fill:#fbfbfb" transform="matrix(.9712 .23826 -.64597 .76336 0 0)" ry="0" height="20.281" width="17.003" y="448.64" x="1713.5"/><rect style="stroke-linejoin:round;enable-background:accumulate;color:#000;stroke:#000;stroke-linecap:round;stroke-width:1.6511;fill:#000" transform="matrix(.97276 .2318 -.65484 .75577 0 0)" ry="0" height="20.054" width="16.977" y="424.56" x="1725.4"/></g><g style="enable-background:new" transform="matrix(.97276 0 0 .99614 37.801 3.133)"><rect style="stroke-linejoin:round;enable-background:accumulate;color:#000;stroke:#000;stroke-linecap:round;stroke-width:1.8379;fill:#fbfbfb" transform="matrix(-.63146 .77541 .41897 .908 0 0)" ry="0" height="21.593" width="18.943" y="1754.3" x="-1053.7"/><g style="enable-background:new" transform="matrix(.97899 0 0 1.0097 38.132 13.518)"><rect ry="0" style="stroke-linejoin:round;enable-background:accumulate;color:#000;stroke:#000;stroke-linecap:round;stroke-width:1.8381;fill:#000" transform="matrix(-.65927 .7519 .3851 .92288 0 0)" height="21.576" width="18.964" y="1719.1" x="-1126.1"/><rect ry="0" style="stroke-linejoin:round;enable-background:accumulate;color:#000;stroke:#000;stroke-linecap:round;stroke-width:1.7576;fill:#000" transform="matrix(-.66244 .74911 .3508 .93645 0 0)" height="20.703" width="18.069" y="1746.9" x="-1214.8"/></g></g><g style="enable-background:new"><rect ry="0" style="stroke-linejoin:round;enable-background:accumulate;color:#000;stroke:#000;stroke-linecap:round;stroke-width:1.7998;fill:#fbfbfb" transform="matrix(-.58773 .73818 .38574 .85503 56.35 50.962)" height="21.261" width="18.45" y="1822.6" x="-1104.4"/><g style="enable-background:new" transform="matrix(.88746 0 0 .93622 173.65 87.267)"><rect ry="0" style="stroke-linejoin:round;enable-background:accumulate;color:#000;stroke:#000;stroke-linecap:round;stroke-width:1.8381;fill:#fbfbfb" transform="matrix(-.65927 .7519 .3851 .92288 0 0)" height="21.576" width="18.964" y="1719.1" x="-1126.1"/><rect ry="0" style="stroke-linejoin:round;enable-background:accumulate;color:#000;stroke:#000;stroke-linecap:round;stroke-width:1.7576;fill:#000" transform="matrix(-.66244 .74911 .3508 .93645 0 0)" height="20.703" width="18.069" y="1746.9" x="-1214.8"/></g></g><rect style="stroke-linejoin:round;color:#000;stroke:#000;stroke-linecap:round;stroke-width:1.8536;fill:#fbfbfb" transform="matrix(-.98622 -.16544 .4016 .91582 0 0)" ry="0" height="19.672" width="21.153" y="635.86" x="-1141"/><rect style="stroke-linejoin:round;color:#000;stroke:#000;stroke-linecap:round;stroke-width:1.8536;fill:#fbfbfb" transform="matrix(-.98622 -.16544 .4016 .91582 0 0)" ry="0" height="19.672" width="21.153" y="657.05" x="-1141.2"/><rect style="stroke-linejoin:round;color:#000;stroke:#000;stroke-linecap:round;stroke-width:1.8439;fill:#000" transform="matrix(-.98654 -.16351 .40484 .91439 0 0)" ry="0" height="19.468" width="21.15" y="681.33" x="-1137.2"/></g></svg>